<svg xmlns="http://www.w3.org/2000/svg" viewBox="0 0 1080 420">
  <style>
    text { font-family: -apple-system, 'Segoe UI', Helvetica, Arial, sans-serif; }
    .agent { font-size: 10px; font-weight: 500; fill: #334155; }
    .title { font-size: 10px; font-weight: 700; fill: #ff6b35; }
    .sub { font-size: 8.5px; fill: #94a3b8; font-style: italic; }
    .mech { font-size: 9.5px; font-weight: 600; fill: #fff; }
    .ground-title { font-size: 10px; font-weight: 700; fill: #2d6a4f; }
  </style>

  <defs>
    <marker id="arr" viewBox="0 0 8 8" refX="7" refY="4" markerWidth="5" markerHeight="5" orient="auto-start-reverse">
      <path d="M1,1 L7,4 L1,7" fill="none" stroke="#94a3b8" stroke-width="1.2" stroke-linecap="round" stroke-linejoin="round"/>
    </marker>
  </defs>

  <!-- ═══ ROW 1 ═══ -->

  <!-- Fracture Seed -->
  <rect x="14" y="66" width="56" height="56" rx="28" fill="#fff7ed" stroke="#ff6b35" stroke-width="1.5"/>
  <text x="42" y="90" text-anchor="middle" font-size="9" font-weight="600" fill="#ff6b35">Fracture</text>
  <text x="42" y="102" text-anchor="middle" font-size="9" font-weight="600" fill="#ff6b35">Seed</text>

  <line x1="74" y1="94" x2="97" y2="94" stroke="#cbd5e1" stroke-width="1.3" marker-end="url(#arr)"/>

  <!-- Round 1 -->
  <rect x="102" y="18" width="130" height="152" rx="8" fill="#fff7ed" stroke="#fdba74" stroke-width="1"/>
  <text class="title" x="112" y="36">Round 1</text>
  <text class="sub" x="112" y="48">First Fragments</text>
  <text class="agent" x="112" y="68">🔍 Decomposer</text>
  <text class="agent" x="112" y="84">❤️‍🔥 Empath</text>
  <text class="agent" x="112" y="100">🪢 Associator</text>
  <text class="agent" x="112" y="116">👁️ Observer</text>
  <text class="agent" x="112" y="132">🪑 Includer</text>
  <text class="agent" x="112" y="148">🔍 Decomposer</text>

  <line x1="236" y1="94" x2="259" y2="94" stroke="#cbd5e1" stroke-width="1.3" marker-end="url(#arr)"/>

  <!-- Friction 1 -->
  <rect x="264" y="82" width="62" height="24" rx="12" fill="#ff6b35"/>
  <text class="mech" x="295" y="94" text-anchor="middle" dominant-baseline="central">Friction</text>

  <line x1="330" y1="94" x2="353" y2="94" stroke="#cbd5e1" stroke-width="1.3" marker-end="url(#arr)"/>

  <!-- Round 2 -->
  <rect x="358" y="30" width="130" height="128" rx="8" fill="#fff7ed" stroke="#fdba74" stroke-width="1"/>
  <text class="title" x="368" y="48">Round 2</text>
  <text class="sub" x="368" y="60">Scale Shift</text>
  <text class="agent" x="368" y="80">🔭 Scaler</text>
  <text class="agent" x="368" y="96">🧒 Child</text>
  <text class="agent" x="368" y="112">🪢 Associator</text>
  <text class="agent" x="368" y="128">🔥 Provocateur</text>
  <text class="agent" x="368" y="144">🔭 Scaler</text>

  <line x1="492" y1="94" x2="515" y2="94" stroke="#cbd5e1" stroke-width="1.3" marker-end="url(#arr)"/>

  <!-- Friction 2 -->
  <rect x="520" y="82" width="62" height="24" rx="12" fill="#ff6b35"/>
  <text class="mech" x="551" y="94" text-anchor="middle" dominant-baseline="central">Friction</text>

  <line x1="586" y1="94" x2="609" y2="94" stroke="#cbd5e1" stroke-width="1.3" marker-end="url(#arr)"/>

  <!-- Sensory Check -->
  <rect x="614" y="82" width="66" height="24" rx="12" fill="#4a90d9"/>
  <text class="mech" x="647" y="94" text-anchor="middle" dominant-baseline="central">Sensory</text>

  <!-- Wrap arrow row 1 to row 2 -->
  <path d="M684,94 Q710,94 710,186 Q710,280 684,280" fill="none" stroke="#cbd5e1" stroke-width="1.3" marker-end="url(#arr)"/>

  <!-- ═══ ROW 2 ═══ -->

  <!-- Round 3 -->
  <rect x="546" y="216" width="130" height="128" rx="8" fill="#fff7ed" stroke="#fdba74" stroke-width="1"/>
  <text class="title" x="556" y="234">Round 3</text>
  <text class="sub" x="556" y="246">Deep Fragments</text>
  <text class="agent" x="556" y="266">🔍 Decomposer</text>
  <text class="agent" x="556" y="282">😰 Anxious</text>
  <text class="agent" x="556" y="298">🪢 Associator</text>
  <text class="agent" x="556" y="314">👁️ Observer</text>
  <text class="agent" x="556" y="330">❤️‍🔥 Empath</text>

  <line x1="542" y1="280" x2="519" y2="280" stroke="#cbd5e1" stroke-width="1.3" marker-end="url(#arr)"/>

  <!-- Friction 3 -->
  <rect x="453" y="268" width="62" height="24" rx="12" fill="#ff6b35"/>
  <text class="mech" x="484" y="280" text-anchor="middle" dominant-baseline="central">Friction</text>

  <line x1="449" y1="280" x2="426" y2="280" stroke="#cbd5e1" stroke-width="1.3" marker-end="url(#arr)"/>

  <!-- Bias Check -->
  <rect x="360" y="268" width="62" height="24" rx="12" fill="#9b59b6"/>
  <text class="mech" x="391" y="280" text-anchor="middle" dominant-baseline="central">Bias</text>

  <line x1="356" y1="280" x2="333" y2="280" stroke="#cbd5e1" stroke-width="1.3" marker-end="url(#arr)"/>

  <!-- Round 4 -->
  <rect x="196" y="234" width="130" height="92" rx="8" fill="#fff7ed" stroke="#fdba74" stroke-width="1"/>
  <text class="title" x="206" y="252">Round 4</text>
  <text class="sub" x="206" y="264">Constellation</text>
  <text class="agent" x="206" y="284">💎 Reifier</text>
  <text class="agent" x="206" y="300">🪢 Associator</text>
  <text class="agent" x="206" y="316">🔥 Provocateur</text>

  <line x1="192" y1="280" x2="169" y2="280" stroke="#cbd5e1" stroke-width="1.3" marker-end="url(#arr)"/>

  <!-- Ground -->
  <rect x="72" y="248" width="92" height="64" rx="8" fill="#ecfdf5" stroke="#86efac" stroke-width="1"/>
  <text class="ground-title" x="82" y="266">Ground</text>
  <text class="agent" x="82" y="286">❤️‍🔥 Empath</text>
  <text class="agent" x="82" y="302">💎 Reifier</text>

  <line x1="68" y1="280" x2="51" y2="280" stroke="#cbd5e1" stroke-width="1.3" marker-end="url(#arr)"/>

  <!-- Presentation -->
  <rect x="14" y="384" width="100" height="30" rx="15" fill="#2d6a4f"/>
  <text class="mech" x="64" y="399" text-anchor="middle" dominant-baseline="central">Presentation</text>

  <!-- Arrow from Ground to Presentation -->
  <path d="M118,316 Q118,360 100,380" fill="none" stroke="#cbd5e1" stroke-width="1.3" marker-end="url(#arr)"/>

  <!-- Legend -->
  <g transform="translate(780, 360)">
    <rect x="0" y="0" width="12" height="12" rx="3" fill="#ff6b35"/>
    <text font-size="9" fill="#64748b" x="18" y="10">Friction</text>
    <rect x="75" y="0" width="12" height="12" rx="3" fill="#4a90d9"/>
    <text font-size="9" fill="#64748b" x="93" y="10">Sensory</text>
    <rect x="150" y="0" width="12" height="12" rx="3" fill="#9b59b6"/>
    <text font-size="9" fill="#64748b" x="168" y="10">Bias</text>
  </g>
</svg>
